M48
; DRILL file {KiCad 7.0.10} date Sun Feb  4 18:23:57 2024
; FORMAT={-:-/ absolute / inch / decimal}
; #@! TF.CreationDate,2024-02-04T18:23:57-08:00
; #@! TF.GenerationSoftware,Kicad,Pcbnew,7.0.10
; #@! TF.FileFunction,Plated,1,2,PTH
FMAT,2
INCH
; #@! TA.AperFunction,Plated,PTH,ComponentDrill
T1C0.0295
; #@! TA.AperFunction,Plated,PTH,ComponentDrill
T2C0.0335
; #@! TA.AperFunction,Plated,PTH,ComponentDrill
T3C0.0374
; #@! TA.AperFunction,Plated,PTH,ComponentDrill
T4C0.0394
%
G90
G05
T1
X3.65Y-2.3
X3.65Y-2.3787
X3.7287Y-2.3
X3.7287Y-2.3787
X3.8075Y-2.3
X3.8075Y-2.3787
X3.8862Y-2.3
X3.8862Y-2.3787
T2
X5.8Y-3.45
X5.8Y-3.75
X6.7Y-3.45
X6.7Y-3.75
T3
X4.3Y-3.8516
X4.3Y-3.95
X4.9531Y-2.4
X5.0516Y-2.4
X5.15Y-2.4
T4
X3.75Y-2.7
X3.85Y-2.7
X3.95Y-2.7
X4.05Y-2.7
M30
